<?xml version="1.0" encoding="UTF-8" standalone="no"?>
<!-- Created with Inkscape (http://www.inkscape.org/) -->

<svg
   width="261.83975mm"
   height="81.134277mm"
   viewBox="0 0 261.83975 81.134277"
   version="1.1"
   id="svg769"
   inkscape:version="1.2.2 (b0a8486, 2022-12-01)"
   sodipodi:docname="baniere_verte.svg"
   xmlns:inkscape="http://www.inkscape.org/namespaces/inkscape"
   xmlns:sodipodi="http://sodipodi.sourceforge.net/DTD/sodipodi-0.dtd"
   xmlns="http://www.w3.org/2000/svg"
   xmlns:svg="http://www.w3.org/2000/svg">
  <sodipodi:namedview
     id="namedview771"
     inkscape:showpageshadow="0"
     inkscape:pageopacity="0"
     inkscape:pagecheckerboard="0"
     inkscape:deskcolor="#505050"
     inkscape:document-units="mm"
     showgrid="false"
     inkscape:zoom="0.2102413"
     inkscape:cx="351.97651"
     inkscape:cy="171.23182"
     inkscape:window-width="1680"
     inkscape:window-height="1022"
     inkscape:window-x="0"
     inkscape:window-y="28"
     inkscape:window-maximized="0"
     inkscape:current-layer="layer1" />
  <defs
     id="defs766" />
  <g
     inkscape:label="Calque 1"
     inkscape:groupmode="layer"
     id="layer1"
     transform="translate(-11.287751,-102.89896)">
    <g
       id="g334"
       transform="matrix(0.26458333,0,0,0.26458333,-111.37822,51.902971)">
		<path
   class="st1"
   d="m 484.28,498.3 h -20.5 v -47.83 h 11.35 v 38.55 h 5.51 c 3.75,0 8.32,-0.27 9.37,-0.54 l 0.28,0.47 c -0.01,6.37 -2.32,9.35 -6.01,9.35 z"
   id="path312"
   style="fill:#01615a" />

		<path
   class="st1"
   d="m 494.03,473.44 -3.14,-2.91 c 2.15,-4.13 3.53,-6.98 3.53,-12.2 0,-2.37 -0.55,-4.95 -2.15,-6.3 v -0.61 c 0.83,-2.57 2.76,-3.93 4.96,-3.93 3.58,0 5.4,3.32 5.4,7.45 -0.01,7.52 -4.36,13.69 -8.6,18.5 z"
   id="path314"
   style="fill:#01615a" />

		<path
   class="st1"
   d="m 526.32,459.41 v 10.84 h 4.13 c 3.75,0 8.32,-0.27 9.37,-0.54 l 0.33,0.47 c 0,6.37 -2.31,8.67 -6.01,8.67 h -7.83 v 10.16 h 6.28 c 3.75,0 8.32,-0.27 9.37,-0.54 l 0.33,0.47 c 0,6.37 -2.31,9.35 -6.01,9.35 h -21.33 v -47.83 h 25.46 v 8.94 H 526.32 Z M 538.66,438 h -9.53 c -1.27,2.57 -3.97,7.25 -6.23,9.82 v 0.68 c 4.35,0 7.33,-0.81 9.81,-3.66 z"
   id="path316"
   style="fill:#01615a" />

		<path
   class="st1"
   d="m 575.97,499.39 c -12.84,0 -23.2,-9.48 -23.2,-26.08 0,-16.53 10.47,-23.44 22.65,-23.44 3.42,0 6.89,0.14 10.25,0.81 l -1.16,9.49 c -2.54,-1.02 -5.18,-1.49 -7.83,-1.49 -7.6,0 -12.23,4.88 -12.23,14.3 0,10.16 5.9,17.68 14.44,17.68 2.37,0 5.02,-0.47 7.05,-2.1 l 0.44,0.34 c 0.06,0.47 0.06,0.95 0.06,1.42 0,7.51 -5.45,9.07 -10.47,9.07 z"
   id="path318"
   style="fill:#01615a" />

		<path
   class="st1"
   d="m 618.95,498.3 h -20.5 v -47.83 h 11.35 v 38.55 h 5.51 c 3.75,0 8.32,-0.27 9.37,-0.54 l 0.28,0.47 c 0,6.37 -2.32,9.35 -6.01,9.35 z"
   id="path320"
   style="fill:#01615a" />

		<path
   class="st1"
   d="m 659.23,498.3 -3.2,-12.06 h -13.01 l -3.14,12.06 h -8.98 l 13.5,-47.83 h 13.23 l 13.94,47.83 z m -7.82,-29.61 c -0.94,-3.52 -1.6,-6.91 -1.87,-8.47 h -0.11 c -0.33,1.69 -1.05,5.22 -1.93,8.67 l -2.37,9.08 h 8.76 z"
   id="path322"
   style="fill:#01615a" />

		<path
   class="st1"
   d="m 682.59,498.3 v -47.83 h 11.35 v 47.83 z"
   id="path324"
   style="fill:#01615a" />

		<path
   class="st1"
   d="m 739.24,498.84 c -9.09,0 -13.56,-10.03 -15.49,-20.46 -0.83,0.14 -1.76,0.14 -2.48,0.14 v 19.78 h -11.35 v -47.56 c 5.07,-0.27 10.03,-0.47 15.1,-0.47 7.44,0 16.59,1.96 16.7,13.21 0.06,6.17 -3.64,10.84 -7.82,12.94 1.71,4.13 7.38,15.92 11.52,15.92 0.55,0 1.05,-0.14 1.54,-0.41 l 0.33,0.41 c -0.44,4.88 -4.19,6.5 -8.05,6.5 z m -15.37,-41.39 c -0.88,0 -1.71,0.07 -2.59,0.27 v 13.55 c 0.88,0.07 1.71,0.2 2.59,0.2 3.69,0 6.34,-2.24 6.34,-7.05 0,-4.87 -2.59,-6.97 -6.34,-6.97 z"
   id="path326"
   style="fill:#01615a" />

		<path
   class="st1"
   d="m 777.43,499.39 c -12.84,0 -23.2,-9.48 -23.2,-26.08 0,-16.53 10.47,-23.44 22.65,-23.44 3.42,0 6.89,0.14 10.25,0.81 l -1.16,9.49 c -2.54,-1.02 -5.18,-1.49 -7.83,-1.49 -7.6,0 -12.23,4.88 -12.23,14.3 0,10.16 5.9,17.68 14.44,17.68 2.37,0 5.02,-0.47 7.05,-2.1 l 0.44,0.34 c 0.05,0.47 0.05,0.95 0.05,1.42 0.01,7.51 -5.44,9.07 -10.46,9.07 z"
   id="path328"
   style="fill:#01615a" />

		<path
   class="st1"
   d="m 799.91,498.3 v -47.83 h 11.35 v 47.83 z"
   id="path330"
   style="fill:#01615a" />

		<path
   class="st1"
   d="m 838.6,459.41 v 10.84 h 4.13 c 3.75,0 8.32,-0.27 9.37,-0.54 l 0.33,0.47 c 0,6.37 -2.31,8.67 -6.01,8.67 h -7.82 v 10.16 h 6.28 c 3.75,0 8.32,-0.27 9.37,-0.54 l 0.33,0.47 c 0,6.37 -2.31,9.35 -6.01,9.35 h -21.33 v -47.83 h 25.46 v 8.94 h -14.1 z"
   id="path332"
   style="fill:#01615a" />

	</g>
    <g
       id="g376"
       transform="matrix(0.26458333,0,0,0.26458333,-111.37822,51.902971)">
		<path
   class="st1"
   d="m 897.75,484.75 v -21.28 h 6.63 c 3.65,0 5.53,2.16 5.53,4.96 0,1.95 -0.91,3.19 -2.31,3.98 2.71,0.91 4.41,2.95 4.41,5.78 0,3.71 -2.4,6.57 -8.03,6.57 h -6.23 z m 6.02,-13.65 c 2.52,0 3.04,-4.53 0,-4.53 h -1.7 v 4.53 z m 0.76,10.09 c 4.29,0 4.07,-6.17 0.03,-6.17 h -2.49 v 6.17 z"
   id="path336"
   style="fill:#01615a" />

		<path
   class="st1"
   d="m 916.68,484.75 v -21.28 h 7.75 c 4.2,0 6.87,2.71 6.87,6.99 0,2.74 -1.09,4.77 -2.95,5.93 l 3.65,8.36 h -4.74 l -2.98,-7.33 H 921 v 7.33 z m 10.46,-14.29 c 0,-1.95 -1.25,-3.04 -3.37,-3.04 H 921 v 6.05 h 2.77 c 2.09,0 3.37,-1.06 3.37,-3.01 z"
   id="path338"
   style="fill:#01615a" />

		<path
   class="st1"
   d="m 945.34,479.7 h -6.38 l -1.49,5.05 h -4.62 l 6.87,-21.28 h 4.83 l 6.87,21.28 h -4.62 z m -5.38,-3.4 h 4.38 l -0.64,-2.28 c -0.58,-2.1 -1.31,-4.59 -1.55,-5.96 -0.27,1.67 -0.91,3.89 -1.52,5.96 z"
   id="path340"
   style="fill:#01615a" />

		<path
   class="st1"
   d="m 952.75,480.95 3.5,-2.49 c 0.85,1.67 2.19,2.55 3.74,2.55 1.4,0 2.37,-0.94 2.37,-2.25 0,-3.16 -8.21,-4.38 -8.21,-10.12 0,-3.22 2.74,-5.47 5.75,-5.47 2.4,0 4.16,1.09 5.29,2.83 l -2.92,2.58 c -0.55,-0.82 -1.31,-1.46 -2.19,-1.46 -0.88,0 -1.55,0.64 -1.55,1.55 0,2.68 8.18,4.04 8.18,10.03 0,3.65 -2.8,6.32 -6.75,6.32 -3.01,0 -5.78,-1.25 -7.21,-4.07 z"
   id="path342"
   style="fill:#01615a" />

		<path
   class="st1"
   d="m 968.28,480.95 3.5,-2.49 c 0.85,1.67 2.19,2.55 3.74,2.55 1.4,0 2.37,-0.94 2.37,-2.25 0,-3.16 -8.21,-4.38 -8.21,-10.12 0,-3.22 2.74,-5.47 5.75,-5.47 2.4,0 4.16,1.09 5.29,2.83 l -2.92,2.58 c -0.55,-0.82 -1.31,-1.46 -2.19,-1.46 -0.88,0 -1.55,0.64 -1.55,1.55 0,2.68 8.18,4.04 8.18,10.03 0,3.65 -2.8,6.32 -6.75,6.32 -3.01,0 -5.78,-1.25 -7.21,-4.07 z"
   id="path344"
   style="fill:#01615a" />

		<path
   class="st1"
   d="m 986,484.75 v -21.28 h 12.95 v 3.86 h -8.63 v 4.26 h 6.05 v 3.83 h -6.05 v 5.47 h 8.63 v 3.86 z"
   id="path346"
   style="fill:#01615a" />

		<path
   class="st1"
   d="m 1003.93,484.75 v -21.28 h 7.75 c 4.2,0 6.87,2.71 6.87,6.99 0,2.74 -1.09,4.77 -2.95,5.93 l 3.65,8.36 h -4.74 l -2.98,-7.33 h -3.28 v 7.33 z m 10.46,-14.29 c 0,-1.95 -1.25,-3.04 -3.37,-3.04 h -2.77 v 6.05 h 2.77 c 2.09,0 3.37,-1.06 3.37,-3.01 z"
   id="path348"
   style="fill:#01615a" />

		<path
   class="st1"
   d="m 1022.71,484.75 v -3.59 h 2.65 v -14.07 h -2.65 v -3.62 h 9.64 v 3.62 h -2.64 v 14.07 h 2.64 v 3.59 z"
   id="path350"
   style="fill:#01615a" />

		<path
   class="st1"
   d="m 1037.33,484.75 v -21.28 h 12.95 v 3.86 h -8.63 v 4.26 h 6.05 v 3.83 h -6.05 v 5.47 h 8.63 v 3.86 z"
   id="path352"
   style="fill:#01615a" />

		<path
   class="st1"
   d="m 1075.47,479.7 h -6.38 l -1.49,5.05 h -4.62 l 6.87,-21.28 h 4.83 l 6.87,21.28 h -4.62 z m -5.38,-3.4 h 4.38 l -0.64,-2.28 c -0.58,-2.1 -1.31,-4.59 -1.55,-5.96 -0.27,1.67 -0.91,3.89 -1.52,5.96 z"
   id="path354"
   style="fill:#01615a" />

		<path
   class="st1"
   d="m 1084.4,484.75 v -21.28 h 4.32 v 17.33 h 7.51 v 3.95 z"
   id="path356"
   style="fill:#01615a" />

		<path
   class="st1"
   d="m 1100.11,484.75 v -17.27 h -4.07 v -4.01 h 12.53 v 4.01 h -4.07 v 17.27 z"
   id="path358"
   style="fill:#01615a" />

		<path
   class="st1"
   d="m 1112.33,484.75 v -21.28 h 12.95 v 3.86 h -8.63 v 4.26 h 6.05 v 3.83 h -6.05 v 5.47 h 8.63 v 3.86 z"
   id="path360"
   style="fill:#01615a" />

		<path
   class="st1"
   d="m 1130.26,484.75 v -21.28 h 7.75 c 4.2,0 6.87,2.71 6.87,6.99 0,2.74 -1.09,4.77 -2.95,5.93 l 3.65,8.36 h -4.74 l -2.98,-7.33 h -3.28 v 7.33 z m 10.45,-14.29 c 0,-1.95 -1.25,-3.04 -3.37,-3.04 h -2.77 v 6.05 h 2.77 c 2.1,0 3.37,-1.06 3.37,-3.01 z"
   id="path362"
   style="fill:#01615a" />

		<path
   class="st1"
   d="m 1164.66,484.75 h -4.1 v -4.65 l -6.02,-8.27 c -0.49,-0.67 -0.97,-1.58 -0.97,-1.58 0,0 0.09,1.03 0.09,1.85 v 12.65 h -4.01 v -21.28 h 3.98 l 6.17,8.85 c 0.37,0.58 0.73,1.25 0.82,1.4 0,-0.09 -0.06,-0.94 -0.06,-1.64 v -8.6 h 4.1 z"
   id="path364"
   style="fill:#01615a" />

		<path
   class="st1"
   d="m 1180.61,479.7 h -6.38 l -1.49,5.05 h -4.62 l 6.87,-21.28 h 4.83 l 6.87,21.28 h -4.62 z m -5.38,-3.4 h 4.38 l -0.64,-2.28 c -0.58,-2.1 -1.31,-4.59 -1.55,-5.96 -0.27,1.67 -0.91,3.89 -1.52,5.96 z"
   id="path366"
   style="fill:#01615a" />

		<path
   class="st1"
   d="m 1191.06,484.75 v -17.27 h -4.07 v -4.01 h 12.53 v 4.01 h -4.07 v 17.27 z"
   id="path368"
   style="fill:#01615a" />

		<path
   class="st1"
   d="m 1202.67,484.75 v -3.59 h 2.64 v -14.07 h -2.64 v -3.62 h 9.64 v 3.62 h -2.64 v 14.07 h 2.64 v 3.59 z"
   id="path370"
   style="fill:#01615a" />

		<path
   class="st1"
   d="m 1229.11,463.47 h 4.62 l -6.87,21.28 h -4.83 l -6.87,-21.28 h 4.62 l 3.16,10.73 c 0.58,2.07 1.25,4.29 1.52,5.96 0.27,-1.67 0.94,-3.86 1.55,-5.96 z"
   id="path372"
   style="fill:#01615a" />

		<path
   class="st1"
   d="m 1237.19,484.75 v -21.28 h 12.95 v 3.86 h -8.63 v 4.26 h 6.05 v 3.83 h -6.05 v 5.47 h 8.63 v 3.86 z"
   id="path374"
   style="fill:#01615a" />

	</g>
    <g
       id="g394"
       transform="matrix(0.26458333,0,0,0.26458333,-111.37822,51.902971)">
		<path
   class="st1"
   d="m 1309.68,485.44 h -3.47 l -1.64,-14.35 c -0.15,-1.12 -0.21,-2.22 -0.21,-2.43 -0.03,0.27 -0.24,1.34 -0.58,2.34 l -4.92,14.44 h -2.55 l -4.96,-14.41 c -0.36,-1.06 -0.58,-2.31 -0.61,-2.43 0,0.06 -0.03,1.34 -0.15,2.49 l -1.64,14.35 h -3.44 l 2.92,-21.28 h 3.8 l 4.95,14.47 c 0.21,0.64 0.36,1.49 0.36,1.58 0.06,-0.06 0.15,-0.94 0.36,-1.55 l 5.02,-14.5 h 3.8 z"
   id="path378"
   style="fill:#01615a" />

		<path
   class="st1"
   d="m 1314.44,474.8 c 0,-5.99 4.89,-10.91 10.94,-10.91 5.99,0 10.91,4.92 10.91,10.91 0,6.05 -4.92,10.94 -10.91,10.94 -6.05,0.01 -10.94,-4.89 -10.94,-10.94 z m 18.54,0 c 0,-4.53 -3.22,-7.87 -7.6,-7.87 -4.41,0 -7.63,3.37 -7.63,7.87 0,4.59 3.25,7.9 7.63,7.9 4.35,0.01 7.6,-3.37 7.6,-7.9 z"
   id="path380"
   style="fill:#01615a" />

		<path
   class="st1"
   d="m 1342.58,485.44 v -21.28 h 6.96 c 4.29,0 6.75,2.8 6.75,6.66 0,2.7 -1.22,4.8 -3.31,5.87 l 3.83,8.75 h -3.53 c -1.16,-2.64 -2.28,-5.32 -3.38,-8 h -0.36 -3.74 v 8 z m 10.55,-14.62 c 0,-2.25 -1.37,-3.68 -3.92,-3.68 h -3.4 v 7.33 h 3.4 c 2.64,0 3.92,-1.43 3.92,-3.65 z"
   id="path382"
   style="fill:#01615a" />

		<path
   class="st1"
   d="m 1363.18,485.44 v -21.28 h 5.74 c 3.47,0 5.41,2.13 5.41,5.11 0,1.79 -0.82,3.01 -2.13,3.8 2.65,0.94 4.32,3.07 4.32,5.87 0,3.65 -2.43,6.5 -7.99,6.5 z m 5.02,-13.28 c 2.04,0 2.98,-1.25 2.98,-2.89 0,-1.31 -0.76,-2.58 -2.55,-2.58 h -2.22 v 5.47 z m 1.12,10.55 c 2.61,0 3.95,-1.82 3.95,-3.8 0,-1.91 -1.4,-3.86 -3.92,-3.86 h -2.95 v 7.66 z"
   id="path384"
   style="fill:#01615a" />

		<path
   class="st1"
   d="m 1382.14,485.44 v -2.71 h 2.62 V 466.9 h -2.62 v -2.74 h 8.45 v 2.74 h -2.62 v 15.84 h 2.62 v 2.71 h -8.45 z"
   id="path386"
   style="fill:#01615a" />

		<path
   class="st1"
   d="m 1408.01,485.44 v -10.46 h -7.78 v 10.46 h -3.25 v -21.28 h 3.25 v 7.81 h 7.78 v -7.81 h 3.25 v 21.28 z"
   id="path388"
   style="fill:#01615a" />

		<path
   class="st1"
   d="m 1428.31,479.54 h -6.75 l -1.76,5.9 h -3.47 l 6.87,-21.28 h 3.44 l 6.87,21.28 h -3.44 z m -5.87,-2.91 h 4.99 l -1.91,-6.44 c -0.3,-0.94 -0.52,-1.95 -0.58,-2.34 -0.06,0.46 -0.3,1.49 -0.58,2.4 z"
   id="path390"
   style="fill:#01615a" />

		<path
   class="st1"
   d="m 1452.95,485.44 h -3.13 v -5.2 l -7.17,-9.82 c -0.37,-0.46 -0.73,-1.1 -0.76,-1.19 0,0.03 0.09,0.82 0.09,1.43 v 14.77 h -3.07 v -21.28 h 3.13 l 7.17,10.06 c 0.3,0.46 0.61,1 0.67,1.12 0,-0.03 -0.06,-0.76 -0.06,-1.34 v -9.85 h 3.13 z"
   id="path392"
   style="fill:#01615a" />

	</g>
    <path
       class="st1"
       d="m 83.27309,135.81028 c -2.640542,-0.008 -5.347229,0.10584 -7.932208,0.69056 -1.153584,0.2593 -2.600854,0.61384 -3.436938,1.51871 -1.38377,1.49754 0.216959,2.37861 1.66423,2.70669 1.547812,0.34925 3.055937,0.64029 4.524374,1.27265 2.577042,1.11125 4.722813,3.97139 4.339167,6.88975 1.934104,-0.42069 4.643437,0.67468 6.270625,1.70391 2.775479,1.75419 4.577292,5.38692 4.41325,8.65717 -0.05292,1.03981 -0.841375,3.27554 0.653521,3.60098 0.904875,0.19844 1.947333,-0.24606 2.801937,-0.51858 0.978959,-0.31221 1.944688,-0.66411 2.905125,-1.03188 1.325567,-0.50535 2.672287,-1.01071 3.947587,-1.63248 3.18558,-1.55046 6.70718,-1.52929 5.1091,-5.84464 -3.97669,-10.74738 -14.11552,-17.97844 -25.25977,-18.01284 z"
       id="path396"
       style="fill:#01615a;stroke-width:0.264583" />
    <path
       class="st1"
       d="m 29.528278,102.9358 c -0.695854,0.0212 -1.383771,0.43392 -2.069041,0.84667 -0.529167,0.32015 -0.756709,0.96838 -0.545042,1.55046 0.269875,0.73025 0.53975,1.45785 1.039812,1.89706 5.368396,4.70958 10.657417,9.57527 16.187209,14.097 1.404937,1.14829 2.50825,1.10331 4.259791,1.26736 1.80975,0.16933 3.611563,0.42333 5.402792,0.74083 2.428875,0.43127 4.627562,1.16152 6.770687,2.42358 1.722438,1.016 3.172354,2.44211 4.775729,3.6195 1.068917,0.78581 1.994959,0.8599 2.111375,-0.59266 0.137584,-1.7198 -0.373062,-3.50309 -0.836083,-5.13821 -1.695979,-6.01927 -3.500438,-12.00415 -5.103813,-18.04988 -0.542395,-2.05052 -1.497541,-2.66964 -3.455458,-2.62996 -4.746625,0.0979 -28.537958,-0.0318 -28.537958,-0.0318 z"
       id="path398"
       style="fill:#01615a;stroke-width:0.264583" />
    <path
       class="st1"
       d="m 95.772007,129.45235 c 0.01323,0.12435 0.01852,0.21695 0.0291,0.30691 0.298979,2.41036 7.598833,5.75998 9.371543,4.22804 10.29494,-8.8847 20.57929,-17.78264 30.78956,-26.77318 0.68263,-0.60061 1.12978,-2.10873 0.92869,-3.00832 -0.13494,-0.60589 -1.60073,-1.25148 -2.47385,-1.24883 -3.70946,0.0132 -19.24315,0.0635 -28.83429,0.0132 -1.61925,-0.008 -2.49502,0.4736 -2.96598,2.16694 -2.13784,7.68879 -4.341819,15.35377 -6.51934,23.02933 -0.121708,0.43392 -0.22225,0.87577 -0.325437,1.28588 z"
       id="path400"
       style="fill:#01615a;stroke-width:0.264583" />
    <path
       class="st1"
       d="m 151.20751,122.64197 c 4.2545,-2.8231 20.36762,-16.129 23.91039,-19.67177 -4.59317,0 -17.62919,0 -17.62919,0 -4.95035,0.55033 -10.31875,6.81831 -14.09435,9.92981 -4.01108,3.30729 -7.79727,6.81567 -11.80306,10.10973 -6.74423,5.54302 -13.44348,11.05694 -20.08188,16.77194 -2.05581,1.77271 -0.48948,8.73125 2.34686,9.45621 3.38931,0.86518 30.20748,-21.85723 37.35123,-26.59592 z"
       id="path402"
       style="fill:#01615a;stroke-width:0.264583" />
    <path
       class="st1"
       d="m 81.881382,128.13472 c 5.614458,-0.0582 5.614458,-0.0582 7.20725,-5.67267 1.481666,-5.22287 2.979208,-10.44045 4.439708,-15.67127 0.854604,-3.05858 0.312208,-3.80471 -2.627313,-3.82058 H 73.009903 c -2.788709,0.0132 -3.373438,0.81492 -2.592917,3.63273 1.669521,6.01927 3.500437,11.99092 5.027083,18.04987 0.727604,2.88925 1.981729,4.29155 4.8895,3.56394 0.494771,-0.12435 1.031875,-0.0635 1.547813,-0.082 z"
       id="path404"
       style="fill:#01615a;stroke-width:0.264583" />
    <path
       class="st1"
       d="m 48.244903,150.21949 c 0.822854,-8.5381 13.287375,-6.00604 18.139833,-2.52412 0.116417,0.082 0.261938,0.0635 0.365125,-0.0344 4.079875,-3.8444 11.284479,2.19604 11.829521,6.71248 0.02117,0.17198 0.15875,0.30692 0.328083,0.27517 1.264708,-0.2249 6.193896,1.44462 7.321021,4.89743 0.494771,1.51342 1.283229,6.45319 -1.217083,6.45319 -10.974917,0 -21.936604,-0.0291 -32.911521,-0.0291 -7.749646,0 -15.501937,0 -23.254229,0 -3.854979,0 -17.531291,0.0794 -17.531291,0.0291 0,-1.57956 0,-3.91848 0,-4.50321 0,-6.23887 7.630583,-5.90285 11.609916,-6.93208 1.981729,-0.51329 21.971,-5.11175 24.915812,-4.05342 0.195792,0.0714 0.386292,-0.0873 0.404813,-0.29104 z"
       id="path406"
       style="fill:#01615a;stroke-width:0.264583" />
    <path
       class="st1"
       d="m 36.523861,145.99674 c 0.280459,-0.0767 0.555625,-0.1614 0.828146,-0.254 0.05556,-0.0212 0.113771,-0.0397 0.169334,-0.0608 1.436687,-0.5424 3.280833,-1.16682 4.828645,-0.74613 1.36525,-3.72004 5.3975,-4.77308 8.929688,-5.20435 2.016125,-0.24607 4.058708,-0.23813 6.082771,-0.0767 0.47625,0.037 5.696479,0.59531 5.677958,0.83608 0.804333,-10.22085 -14.491229,-15.47548 -22.124458,-10.287 -2.338917,-4.32064 -11.601979,-4.33652 -15.732125,-3.14589 -6.180667,1.78329 -8.175625,4.97152 -8.940271,10.94316 -1.330854,0.57679 -4.926541,2.2225 -4.926541,4.0984 0,0.27781 -0.03175,8.69156 -0.0291,8.31585 0,0 7.641167,-0.32544 8.49048,-0.48419 1.894416,-0.35454 9.403291,-2.39447 11.424708,-2.86014 1.738312,-0.39423 3.58775,-0.59531 5.32077,-1.07421 z"
       id="path408"
       style="fill:#01615a;stroke-width:0.264583" />
    <path
       class="st1"
       d="m 11.317008,128.9073 c 0,-6.35793 0,-15.3326 0,-21.336 0,-3.73327 1.775354,-2.96862 4.85775,-0.87841 1.719791,1.16681 3.368145,2.46856 4.786312,3.98727 3.46075,3.70681 8.786812,6.09335 11.893021,10.17852 0.269875,0.35719 -0.02646,0.84667 -0.468313,0.77787 -3.473979,-0.53975 -7.003521,-0.20373 -10.596562,0.28311 -5.386917,0.7276 -10.339917,7.88723 -10.472208,6.98764 z"
       id="path410"
       style="fill:#01615a;stroke-width:0.264583" />
    <path
       class="st1"
       d="m 148.93474,132.94749 c 4.70693,-3.13267 8.99847,-6.45583 13.56518,-9.79752 4.95036,-3.6195 10.0039,-7.112 15.08654,-10.54365 4.59846,-3.10356 10.58863,-9.28422 16.13959,-9.56997 5.07206,-0.26194 41.75125,-0.0688 44.5082,-0.0688 -3.35227,3.4634 -63.10047,27.26267 -68.08787,30.51704 -4.17248,2.72257 -6.86065,5.76792 -11.84804,7.15698 -5.3049,1.47638 -11.049,0.50271 -16.4121,1.92352 -1.48167,0.39159 -2.74109,0.8943 -4.11692,1.52665 -0.21431,0.0979 -6.26533,1.91029 -5.59329,0.77258 1.37054,-2.32039 5.02179,-3.98991 7.2046,-5.52714 3.13002,-2.19869 6.36588,-4.26773 9.55411,-6.38969 z"
       id="path412"
       style="fill:#01615a;stroke-width:0.264583" />
    <path
       class="st1"
       d="m 153.60728,150.04751 c -0.43127,-0.14552 -0.86254,-0.32014 -1.29382,-0.52123 -3.96345,-1.85737 -5.89756,-3.44487 -10.52512,-1.79916 -0.52388,0.18785 -4.953,2.81781 -4.84717,2.88395 -2.74108,-1.75683 -7.64646,-1.44991 -10.31875,0.55827 -2.3786,1.78859 -2.11931,4.27303 -4.96623,5.0509 -1.83091,0.50006 -4.13543,0.5715 -5.86316,1.37054 -1.9394,0.89694 -3.09563,2.75431 -4.83129,3.94494 -2.21192,1.51871 -5.69119,2.14842 -7.34219,4.56671 15.59454,0 31.39281,-0.0132 47.09319,-0.0132 7.70731,0 15.41197,0.003 23.11929,0.008 8.78416,0 24.08502,0.005 26.96633,0.005 -0.90223,-6.93473 -5.6859,-14.85371 -11.24744,-18.86744 0.93134,-1.25412 0.23813,-3.16706 -1.03187,-4.07723 -1.27,-0.91017 -2.90513,-1.08214 -4.46088,-1.22502 -1.51341,-0.14023 -3.03477,-0.27781 -4.54819,-0.13758 -4.8895,0.45508 -8.9826,3.69623 -13.23445,6.15156 -3.99257,2.30452 -8.33438,3.56658 -12.66825,2.10079 z"
       id="path414"
       style="fill:#01615a;stroke-width:0.264583" />
    <g
       id="g418"
       transform="matrix(0.26458333,0,0,0.26458333,-111.37822,51.902971)">
		<path
   class="st1"
   d="m 1405.6,344.55 c 15.49,5.89 31.1,9.08 47.63,13.04 l 0.02,-23.52 c -16.49,-3.88 -33.46,-6.51 -50.09,-10 -17.14,-3.6 -36.57,-7.96 -50.33,-17.41 -3.4,-2.34 -2.79,-7.54 1.14,-8.81 24.1,-7.76 66.11,-10.68 66.68,-10.78 11.45,-2.1 22.8,-4.68 32.58,-7.14 V 193 h -60.94 c -2.48,0.5 -75.46,33.38 -99.24,44.28 -45.26,20.74 -128.56,51.15 -141.36,55.92 -13.26,4.94 -24.64,8.71 -34.7,19.44 -2.59,2.77 -4.89,7.4 -2.08,9.95 1.38,1.25 3.43,1.33 5.29,1.27 16.55,-0.52 32.45,-6.13 48.61,-9.75 22.61,-5.07 46.09,-6.28 69.1,-3.56 1.33,0.16 2.73,0.35 3.8,1.16 2.02,1.52 2.06,4.69 0.8,6.88 -1.26,2.19 -3.46,3.63 -5.56,5.04 -12.7,8.52 -24.56,18.72 -32.82,31.59 -8.26,12.87 -12.66,28.67 -9.81,43.69 2.69,14.15 12.24,26.6 25.63,32.11 0.14,-0.2 164.86,0.21 165.02,0.21 0,0 4.15,-5.15 6.94,-8.03 5.24,-5.4 8.76,-12.38 10.26,-19.2 2.09,-9.46 0.9,-20.84 -3.75,-29.95 -2.88,-5.64 -9.03,-10.66 -14.39,-15.03 -6.02,-4.9 -18.02,-13.71 -10.55,-20.99 5.53,-5.36 26.71,4.46 32.12,6.52 z m -89.24,73.11 c -0.5,0.22 -1.03,0.4 -1.56,0.56 -1.86,0.55 -3.36,-1.47 -2.26,-3 0.19,-0.26 0.38,-0.51 0.57,-0.76 8.26,-10.29 8.34,-21.58 4.41,-33.31 -0.24,-0.72 -0.75,-1.36 -1.32,-1.98 -0.81,-0.89 -2.28,-0.87 -3.07,0.03 -0.32,0.37 -0.6,0.75 -0.78,1.18 -3.82,8.92 -11.32,13.44 -20.34,16.73 -11.03,4.03 -13.3,11.46 -7.82,20.88 0.36,0.63 -0.28,2.63 -2.6,2.09 -12.37,-4.13 -22.01,-11.49 -27.96,-22.75 -6.46,-12.24 -6.66,-24.91 -1.72,-37.69 0.63,-1.61 3.05,-1.65 3.67,-0.03 0.1,0.26 0.19,0.53 0.24,0.81 2.44,11.66 10.08,18 19.99,16.47 9.66,-1.49 15.86,-10.43 14.2,-21.65 -0.73,-4.92 -2.93,-9.65 -4.56,-14.44 -5.09,-14.94 -0.67,-29.64 11.8,-37.96 1.88,-1.26 4.18,-1.95 6.44,-2.69 1.21,-0.4 2.18,0.46 2.67,1.59 0.6,1.38 0.6,4.5 0.59,4.63 -1.22,10.74 2.73,18.44 9.33,25.1 5,5.04 10.38,9.75 15.24,14.91 20.97,22.29 13.18,58.79 -15.16,71.28 z"
   id="path416"
   style="fill:#01615a" />

	</g>
    <rect
       x="-122.08429"
       y="-178.01205"
       transform="scale(-1)"
       class="st1"
       width="3.5163124"
       height="1.1244792"
       id="rect420"
       style="fill:#01615a;stroke-width:0.264583" />
    <rect
       x="-226.07178"
       y="-178.01205"
       transform="scale(-1)"
       class="st1"
       width="3.5163124"
       height="1.1244792"
       id="rect422"
       style="fill:#01615a;stroke-width:0.264583" />
  </g>
</svg>
